<svg version="1.1" xmlns="http://www.w3.org/2000/svg" xmlns:xlink="http://www.w3.org/1999/xlink" width="488" height="772"><defs/><g><text fill="#eeeeee" stroke="none" font-family="Arial" font-size="24px" font-style="normal" font-weight="normal" text-decoration="none" x="0" y="0">UNREGISTERED</text><text fill="#eeeeee" stroke="none" font-family="Arial" font-size="24px" font-style="normal" font-weight="normal" text-decoration="none" x="0" y="30">UNREGISTERED</text><text fill="#eeeeee" stroke="none" font-family="Arial" font-size="24px" font-style="normal" font-weight="normal" text-decoration="none" x="0" y="60">UNREGISTERED</text><text fill="#eeeeee" stroke="none" font-family="Arial" font-size="24px" font-style="normal" font-weight="normal" text-decoration="none" x="0" y="90">UNREGISTERED</text><text fill="#eeeeee" stroke="none" font-family="Arial" font-size="24px" font-style="normal" font-weight="normal" text-decoration="none" x="0" y="120">UNREGISTERED</text><text fill="#eeeeee" stroke="none" font-family="Arial" font-size="24px" font-style="normal" font-weight="normal" text-decoration="none" x="0" y="150">UNREGISTERED</text><text fill="#eeeeee" stroke="none" font-family="Arial" font-size="24px" font-style="normal" font-weight="normal" text-decoration="none" x="0" y="180">UNREGISTERED</text><text fill="#eeeeee" stroke="none" font-family="Arial" font-size="24px" font-style="normal" font-weight="normal" text-decoration="none" x="0" y="210">UNREGISTERED</text><text fill="#eeeeee" stroke="none" font-family="Arial" font-size="24px" font-style="normal" font-weight="normal" text-decoration="none" x="0" y="240">UNREGISTERED</text><text fill="#eeeeee" stroke="none" font-family="Arial" font-size="24px" font-style="normal" font-weight="normal" text-decoration="none" x="0" y="270">UNREGISTERED</text><text fill="#eeeeee" stroke="none" font-family="Arial" font-size="24px" font-style="normal" font-weight="normal" text-decoration="none" x="0" y="300">UNREGISTERED</text><text fill="#eeeeee" stroke="none" font-family="Arial" font-size="24px" font-style="normal" font-weight="normal" text-decoration="none" x="0" y="330">UNREGISTERED</text><text fill="#eeeeee" stroke="none" font-family="Arial" font-size="24px" font-style="normal" font-weight="normal" text-decoration="none" x="0" y="360">UNREGISTERED</text><text fill="#eeeeee" stroke="none" font-family="Arial" font-size="24px" font-style="normal" font-weight="normal" text-decoration="none" x="0" y="390">UNREGISTERED</text><text fill="#eeeeee" stroke="none" font-family="Arial" font-size="24px" font-style="normal" font-weight="normal" text-decoration="none" x="0" y="420">UNREGISTERED</text><text fill="#eeeeee" stroke="none" font-family="Arial" font-size="24px" font-style="normal" font-weight="normal" text-decoration="none" x="0" y="450">UNREGISTERED</text><text fill="#eeeeee" stroke="none" font-family="Arial" font-size="24px" font-style="normal" font-weight="normal" text-decoration="none" x="0" y="480">UNREGISTERED</text><text fill="#eeeeee" stroke="none" font-family="Arial" font-size="24px" font-style="normal" font-weight="normal" text-decoration="none" x="0" y="510">UNREGISTERED</text><text fill="#eeeeee" stroke="none" font-family="Arial" font-size="24px" font-style="normal" font-weight="normal" text-decoration="none" x="0" y="540">UNREGISTERED</text><text fill="#eeeeee" stroke="none" font-family="Arial" font-size="24px" font-style="normal" font-weight="normal" text-decoration="none" x="0" y="570">UNREGISTERED</text><text fill="#eeeeee" stroke="none" font-family="Arial" font-size="24px" font-style="normal" font-weight="normal" text-decoration="none" x="0" y="600">UNREGISTERED</text><text fill="#eeeeee" stroke="none" font-family="Arial" font-size="24px" font-style="normal" font-weight="normal" text-decoration="none" x="0" y="630">UNREGISTERED</text><text fill="#eeeeee" stroke="none" font-family="Arial" font-size="24px" font-style="normal" font-weight="normal" text-decoration="none" x="0" y="660">UNREGISTERED</text><text fill="#eeeeee" stroke="none" font-family="Arial" font-size="24px" font-style="normal" font-weight="normal" text-decoration="none" x="0" y="690">UNREGISTERED</text><text fill="#eeeeee" stroke="none" font-family="Arial" font-size="24px" font-style="normal" font-weight="normal" text-decoration="none" x="0" y="720">UNREGISTERED</text><text fill="#eeeeee" stroke="none" font-family="Arial" font-size="24px" font-style="normal" font-weight="normal" text-decoration="none" x="0" y="750">UNREGISTERED</text><text fill="#eeeeee" stroke="none" font-family="Arial" font-size="24px" font-style="normal" font-weight="normal" text-decoration="none" x="200" y="0">UNREGISTERED</text><text fill="#eeeeee" stroke="none" font-family="Arial" font-size="24px" font-style="normal" font-weight="normal" text-decoration="none" x="200" y="30">UNREGISTERED</text><text fill="#eeeeee" stroke="none" font-family="Arial" font-size="24px" font-style="normal" font-weight="normal" text-decoration="none" x="200" y="60">UNREGISTERED</text><text fill="#eeeeee" stroke="none" font-family="Arial" font-size="24px" font-style="normal" font-weight="normal" text-decoration="none" x="200" y="90">UNREGISTERED</text><text fill="#eeeeee" stroke="none" font-family="Arial" font-size="24px" font-style="normal" font-weight="normal" text-decoration="none" x="200" y="120">UNREGISTERED</text><text fill="#eeeeee" stroke="none" font-family="Arial" font-size="24px" font-style="normal" font-weight="normal" text-decoration="none" x="200" y="150">UNREGISTERED</text><text fill="#eeeeee" stroke="none" font-family="Arial" font-size="24px" font-style="normal" font-weight="normal" text-decoration="none" x="200" y="180">UNREGISTERED</text><text fill="#eeeeee" stroke="none" font-family="Arial" font-size="24px" font-style="normal" font-weight="normal" text-decoration="none" x="200" y="210">UNREGISTERED</text><text fill="#eeeeee" stroke="none" font-family="Arial" font-size="24px" font-style="normal" font-weight="normal" text-decoration="none" x="200" y="240">UNREGISTERED</text><text fill="#eeeeee" stroke="none" font-family="Arial" font-size="24px" font-style="normal" font-weight="normal" text-decoration="none" x="200" y="270">UNREGISTERED</text><text fill="#eeeeee" stroke="none" font-family="Arial" font-size="24px" font-style="normal" font-weight="normal" text-decoration="none" x="200" y="300">UNREGISTERED</text><text fill="#eeeeee" stroke="none" font-family="Arial" font-size="24px" font-style="normal" font-weight="normal" text-decoration="none" x="200" y="330">UNREGISTERED</text><text fill="#eeeeee" stroke="none" font-family="Arial" font-size="24px" font-style="normal" font-weight="normal" text-decoration="none" x="200" y="360">UNREGISTERED</text><text fill="#eeeeee" stroke="none" font-family="Arial" font-size="24px" font-style="normal" font-weight="normal" text-decoration="none" x="200" y="390">UNREGISTERED</text><text fill="#eeeeee" stroke="none" font-family="Arial" font-size="24px" font-style="normal" font-weight="normal" text-decoration="none" x="200" y="420">UNREGISTERED</text><text fill="#eeeeee" stroke="none" font-family="Arial" font-size="24px" font-style="normal" font-weight="normal" text-decoration="none" x="200" y="450">UNREGISTERED</text><text fill="#eeeeee" stroke="none" font-family="Arial" font-size="24px" font-style="normal" font-weight="normal" text-decoration="none" x="200" y="480">UNREGISTERED</text><text fill="#eeeeee" stroke="none" font-family="Arial" font-size="24px" font-style="normal" font-weight="normal" text-decoration="none" x="200" y="510">UNREGISTERED</text><text fill="#eeeeee" stroke="none" font-family="Arial" font-size="24px" font-style="normal" font-weight="normal" text-decoration="none" x="200" y="540">UNREGISTERED</text><text fill="#eeeeee" stroke="none" font-family="Arial" font-size="24px" font-style="normal" font-weight="normal" text-decoration="none" x="200" y="570">UNREGISTERED</text><text fill="#eeeeee" stroke="none" font-family="Arial" font-size="24px" font-style="normal" font-weight="normal" text-decoration="none" x="200" y="600">UNREGISTERED</text><text fill="#eeeeee" stroke="none" font-family="Arial" font-size="24px" font-style="normal" font-weight="normal" text-decoration="none" x="200" y="630">UNREGISTERED</text><text fill="#eeeeee" stroke="none" font-family="Arial" font-size="24px" font-style="normal" font-weight="normal" text-decoration="none" x="200" y="660">UNREGISTERED</text><text fill="#eeeeee" stroke="none" font-family="Arial" font-size="24px" font-style="normal" font-weight="normal" text-decoration="none" x="200" y="690">UNREGISTERED</text><text fill="#eeeeee" stroke="none" font-family="Arial" font-size="24px" font-style="normal" font-weight="normal" text-decoration="none" x="200" y="720">UNREGISTERED</text><text fill="#eeeeee" stroke="none" font-family="Arial" font-size="24px" font-style="normal" font-weight="normal" text-decoration="none" x="200" y="750">UNREGISTERED</text><text fill="#eeeeee" stroke="none" font-family="Arial" font-size="24px" font-style="normal" font-weight="normal" text-decoration="none" x="400" y="0">UNREGISTERED</text><text fill="#eeeeee" stroke="none" font-family="Arial" font-size="24px" font-style="normal" font-weight="normal" text-decoration="none" x="400" y="30">UNREGISTERED</text><text fill="#eeeeee" stroke="none" font-family="Arial" font-size="24px" font-style="normal" font-weight="normal" text-decoration="none" x="400" y="60">UNREGISTERED</text><text fill="#eeeeee" stroke="none" font-family="Arial" font-size="24px" font-style="normal" font-weight="normal" text-decoration="none" x="400" y="90">UNREGISTERED</text><text fill="#eeeeee" stroke="none" font-family="Arial" font-size="24px" font-style="normal" font-weight="normal" text-decoration="none" x="400" y="120">UNREGISTERED</text><text fill="#eeeeee" stroke="none" font-family="Arial" font-size="24px" font-style="normal" font-weight="normal" text-decoration="none" x="400" y="150">UNREGISTERED</text><text fill="#eeeeee" stroke="none" font-family="Arial" font-size="24px" font-style="normal" font-weight="normal" text-decoration="none" x="400" y="180">UNREGISTERED</text><text fill="#eeeeee" stroke="none" font-family="Arial" font-size="24px" font-style="normal" font-weight="normal" text-decoration="none" x="400" y="210">UNREGISTERED</text><text fill="#eeeeee" stroke="none" font-family="Arial" font-size="24px" font-style="normal" font-weight="normal" text-decoration="none" x="400" y="240">UNREGISTERED</text><text fill="#eeeeee" stroke="none" font-family="Arial" font-size="24px" font-style="normal" font-weight="normal" text-decoration="none" x="400" y="270">UNREGISTERED</text><text fill="#eeeeee" stroke="none" font-family="Arial" font-size="24px" font-style="normal" font-weight="normal" text-decoration="none" x="400" y="300">UNREGISTERED</text><text fill="#eeeeee" stroke="none" font-family="Arial" font-size="24px" font-style="normal" font-weight="normal" text-decoration="none" x="400" y="330">UNREGISTERED</text><text fill="#eeeeee" stroke="none" font-family="Arial" font-size="24px" font-style="normal" font-weight="normal" text-decoration="none" x="400" y="360">UNREGISTERED</text><text fill="#eeeeee" stroke="none" font-family="Arial" font-size="24px" font-style="normal" font-weight="normal" text-decoration="none" x="400" y="390">UNREGISTERED</text><text fill="#eeeeee" stroke="none" font-family="Arial" font-size="24px" font-style="normal" font-weight="normal" text-decoration="none" x="400" y="420">UNREGISTERED</text><text fill="#eeeeee" stroke="none" font-family="Arial" font-size="24px" font-style="normal" font-weight="normal" text-decoration="none" x="400" y="450">UNREGISTERED</text><text fill="#eeeeee" stroke="none" font-family="Arial" font-size="24px" font-style="normal" font-weight="normal" text-decoration="none" x="400" y="480">UNREGISTERED</text><text fill="#eeeeee" stroke="none" font-family="Arial" font-size="24px" font-style="normal" font-weight="normal" text-decoration="none" x="400" y="510">UNREGISTERED</text><text fill="#eeeeee" stroke="none" font-family="Arial" font-size="24px" font-style="normal" font-weight="normal" text-decoration="none" x="400" y="540">UNREGISTERED</text><text fill="#eeeeee" stroke="none" font-family="Arial" font-size="24px" font-style="normal" font-weight="normal" text-decoration="none" x="400" y="570">UNREGISTERED</text><text fill="#eeeeee" stroke="none" font-family="Arial" font-size="24px" font-style="normal" font-weight="normal" text-decoration="none" x="400" y="600">UNREGISTERED</text><text fill="#eeeeee" stroke="none" font-family="Arial" font-size="24px" font-style="normal" font-weight="normal" text-decoration="none" x="400" y="630">UNREGISTERED</text><text fill="#eeeeee" stroke="none" font-family="Arial" font-size="24px" font-style="normal" font-weight="normal" text-decoration="none" x="400" y="660">UNREGISTERED</text><text fill="#eeeeee" stroke="none" font-family="Arial" font-size="24px" font-style="normal" font-weight="normal" text-decoration="none" x="400" y="690">UNREGISTERED</text><text fill="#eeeeee" stroke="none" font-family="Arial" font-size="24px" font-style="normal" font-weight="normal" text-decoration="none" x="400" y="720">UNREGISTERED</text><text fill="#eeeeee" stroke="none" font-family="Arial" font-size="24px" font-style="normal" font-weight="normal" text-decoration="none" x="400" y="750">UNREGISTERED</text><g transform="translate(-138,-14) scale(1,1)"><rect fill="#C0C0C0" stroke="none" x="311" y="31" width="312" height="752" opacity="0.2"/></g><g transform="translate(-138,-14) scale(1,1)"><rect fill="#ffffff" stroke="none" x="304" y="24" width="312" height="752"/></g><g transform="translate(-138,-14) scale(1,1)"><path fill="none" stroke="#000000" d="M 304 24 L 616 24 L 616 776 L 304 776 L 304 24 Z Z" stroke-miterlimit="10"/></g><g transform="translate(-138,-14) scale(1,1)"><g><path fill="none" stroke="none"/><text fill="#000000" stroke="none" font-family="Arial" font-size="13px" font-style="normal" font-weight="bold" text-decoration="none" x="434.34912109375" y="43.5">Software</text></g></g><g transform="translate(-138,-14) scale(1,1)"><path fill="#ffffff" stroke="none" d="M 174.04118625710228 73.68 C 174.04118625710228 68.886167936 177.92702858204774 65 182.720458984375 65 C 187.51388938670226 65 191.39973171164772 68.886167936 191.39973171164772 73.68 C 191.39973171164772 78.473832064 187.51388938670226 82.36 182.720458984375 82.36 C 177.92702858204774 82.36 174.04118625710228 78.473832064 174.04118625710228 73.68 Z"/></g><g transform="translate(-138,-14) scale(1,1)"><path fill="none" stroke="#000000" d="M 174.04118625710228 73.68 C 174.04118625710228 68.886167936 177.92702858204774 65 182.720458984375 65 C 187.51388938670226 65 191.39973171164772 68.886167936 191.39973171164772 73.68 C 191.39973171164772 78.473832064 187.51388938670226 82.36 182.720458984375 82.36 C 177.92702858204774 82.36 174.04118625710228 78.473832064 174.04118625710228 73.68 Z" stroke-miterlimit="10"/></g><g transform="translate(-138,-14) scale(1,1)"><path fill="none" stroke="#000000" d="M 182.720458984375 82.36 L 182.720458984375 99.64" stroke-miterlimit="10"/></g><g transform="translate(-138,-14) scale(1,1)"><path fill="none" stroke="#000000" d="M 173.53064080255683 88.84 L 191.91027716619317 88.84" stroke-miterlimit="10"/></g><g transform="translate(-138,-14) scale(1,1)"><path fill="none" stroke="#000000" d="M 182.720458984375 99.64 L 169.95682262073865 117" stroke-miterlimit="10"/></g><g transform="translate(-138,-14) scale(1,1)"><path fill="none" stroke="#000000" d="M 182.720458984375 99.64 L 195.48409534801135 117" stroke-miterlimit="10"/></g><g transform="translate(-138,-14) scale(1,1)"><g><path fill="none" stroke="none"/><text fill="#000000" stroke="none" font-family="Arial" font-size="13px" font-style="normal" font-weight="bold" text-decoration="none" x="164.29638671875" y="137.5">Admin</text></g></g><g transform="translate(-138,-14) scale(1,1)"><path fill="#ffffff" stroke="none" d="M 174.15935031960228 665.6800000000001 C 174.15935031960228 660.8861679360001 178.04519264454774 657 182.838623046875 657 C 187.63205344920226 657 191.51789577414772 660.8861679360001 191.51789577414772 665.6800000000001 C 191.51789577414772 670.473832064 187.63205344920226 674.36 182.838623046875 674.36 C 178.04519264454774 674.36 174.15935031960228 670.473832064 174.15935031960228 665.6800000000001 Z"/></g><g transform="translate(-138,-14) scale(1,1)"><path fill="none" stroke="#000000" d="M 174.15935031960228 665.6800000000001 C 174.15935031960228 660.8861679360001 178.04519264454774 657 182.838623046875 657 C 187.63205344920226 657 191.51789577414772 660.8861679360001 191.51789577414772 665.6800000000001 C 191.51789577414772 670.473832064 187.63205344920226 674.36 182.838623046875 674.36 C 178.04519264454774 674.36 174.15935031960228 670.473832064 174.15935031960228 665.6800000000001 Z" stroke-miterlimit="10"/></g><g transform="translate(-138,-14) scale(1,1)"><path fill="none" stroke="#000000" d="M 182.838623046875 674.36 L 182.838623046875 691.64" stroke-miterlimit="10"/></g><g transform="translate(-138,-14) scale(1,1)"><path fill="none" stroke="#000000" d="M 173.64880486505683 680.84 L 192.02844122869317 680.84" stroke-miterlimit="10"/></g><g transform="translate(-138,-14) scale(1,1)"><path fill="none" stroke="#000000" d="M 182.838623046875 691.64 L 170.07498668323865 709" stroke-miterlimit="10"/></g><g transform="translate(-138,-14) scale(1,1)"><path fill="none" stroke="#000000" d="M 182.838623046875 691.64 L 195.60225941051135 709" stroke-miterlimit="10"/></g><g transform="translate(-138,-14) scale(1,1)"><g><path fill="none" stroke="none"/><text fill="#000000" stroke="none" font-family="Arial" font-size="13px" font-style="normal" font-weight="bold" text-decoration="none" x="154.66455078125" y="729.5">Customer</text></g></g><g transform="translate(-138,-14) scale(1,1)"><path fill="#ffffff" stroke="none" d="M 173.80705539772728 281.68 C 173.80705539772728 276.886167936 177.69289772267274 273 182.486328125 273 C 187.27975852732726 273 191.16560085227272 276.886167936 191.16560085227272 281.68 C 191.16560085227272 286.473832064 187.27975852732726 290.36 182.486328125 290.36 C 177.69289772267274 290.36 173.80705539772728 286.473832064 173.80705539772728 281.68 Z"/></g><g transform="translate(-138,-14) scale(1,1)"><path fill="none" stroke="#000000" d="M 173.80705539772728 281.68 C 173.80705539772728 276.886167936 177.69289772267274 273 182.486328125 273 C 187.27975852732726 273 191.16560085227272 276.886167936 191.16560085227272 281.68 C 191.16560085227272 286.473832064 187.27975852732726 290.36 182.486328125 290.36 C 177.69289772267274 290.36 173.80705539772728 286.473832064 173.80705539772728 281.68 Z" stroke-miterlimit="10"/></g><g transform="translate(-138,-14) scale(1,1)"><path fill="none" stroke="#000000" d="M 182.486328125 290.36 L 182.486328125 307.64" stroke-miterlimit="10"/></g><g transform="translate(-138,-14) scale(1,1)"><path fill="none" stroke="#000000" d="M 173.29650994318183 296.84 L 191.67614630681817 296.84" stroke-miterlimit="10"/></g><g transform="translate(-138,-14) scale(1,1)"><path fill="none" stroke="#000000" d="M 182.486328125 307.64 L 169.72269176136365 325" stroke-miterlimit="10"/></g><g transform="translate(-138,-14) scale(1,1)"><path fill="none" stroke="#000000" d="M 182.486328125 307.64 L 195.24996448863635 325" stroke-miterlimit="10"/></g><g transform="translate(-138,-14) scale(1,1)"><g><path fill="none" stroke="none"/><text fill="#000000" stroke="none" font-family="Arial" font-size="13px" font-style="normal" font-weight="bold" text-decoration="none" x="166.226806640625" y="345.5">Place</text></g></g><g transform="translate(-138,-14) scale(1,1)"><path fill="#C0C0C0" stroke="none" d="M 410 296 C 410 286.6111584 438.8776304 279 474.5 279 C 510.1223696 279 539 286.6111584 539 296 C 539 305.3888416 510.1223696 313 474.5 313 C 438.8776304 313 410 305.3888416 410 296 Z" opacity="0.2"/></g><g transform="translate(-138,-14) scale(1,1)"><path fill="#ffffff" stroke="none" d="M 403 289 C 403 279.6111584 431.8776304 272 467.5 272 C 503.1223696 272 532 279.6111584 532 289 C 532 298.3888416 503.1223696 306 467.5 306 C 431.8776304 306 403 298.3888416 403 289 Z"/></g><g transform="translate(-138,-14) scale(1,1)"><path fill="none" stroke="#000000" d="M 403 289 C 403 279.6111584 431.8776304 272 467.5 272 C 503.1223696 272 532 279.6111584 532 289 C 532 298.3888416 503.1223696 306 467.5 306 C 431.8776304 306 403 298.3888416 403 289 Z" stroke-miterlimit="10"/></g><g transform="translate(-138,-14) scale(1,1)"><g><path fill="none" stroke="none"/><text fill="#000000" stroke="none" font-family="Arial" font-size="13px" font-style="normal" font-weight="bold" text-decoration="none" x="428.474609375" y="296">Update menu</text></g></g><g transform="translate(-138,-14) scale(1,1)"><path fill="#C0C0C0" stroke="none" d="M 406 96 C 406 86.6111584 436.6684912 79 474.5 79 C 512.3315088 79 543 86.6111584 543 96 C 543 105.3888416 512.3315088 113 474.5 113 C 436.6684912 113 406 105.3888416 406 96 Z" opacity="0.2"/></g><g transform="translate(-138,-14) scale(1,1)"><path fill="#ffffff" stroke="none" d="M 399 89 C 399 79.6111584 429.6684912 72 467.5 72 C 505.3315088 72 536 79.6111584 536 89 C 536 98.3888416 505.3315088 106 467.5 106 C 429.6684912 106 399 98.3888416 399 89 Z"/></g><g transform="translate(-138,-14) scale(1,1)"><path fill="none" stroke="#000000" d="M 399 89 C 399 79.6111584 429.6684912 72 467.5 72 C 505.3315088 72 536 79.6111584 536 89 C 536 98.3888416 505.3315088 106 467.5 106 C 429.6684912 106 399 98.3888416 399 89 Z" stroke-miterlimit="10"/></g><g transform="translate(-138,-14) scale(1,1)"><g><path fill="none" stroke="none"/><text fill="#000000" stroke="none" font-family="Arial" font-size="13px" font-style="normal" font-weight="bold" text-decoration="none" x="425.945068359375" y="96">Update places</text></g></g><g transform="translate(-138,-14) scale(1,1)"><path fill="#C0C0C0" stroke="none" d="M 399 592 C 399 582.6111584 432.8024976 575 474.5 575 C 516.1975024 575 550 582.6111584 550 592 C 550 601.3888416 516.1975024 609 474.5 609 C 432.8024976 609 399 601.3888416 399 592 Z" opacity="0.2"/></g><g transform="translate(-138,-14) scale(1,1)"><path fill="#ffffff" stroke="none" d="M 392 585 C 392 575.6111584 425.8024976 568 467.5 568 C 509.1975024 568 543 575.6111584 543 585 C 543 594.3888416 509.1975024 602 467.5 602 C 425.8024976 602 392 594.3888416 392 585 Z"/></g><g transform="translate(-138,-14) scale(1,1)"><path fill="none" stroke="#000000" d="M 392 585 C 392 575.6111584 425.8024976 568 467.5 568 C 509.1975024 568 543 575.6111584 543 585 C 543 594.3888416 509.1975024 602 467.5 602 C 425.8024976 602 392 594.3888416 392 585 Z" stroke-miterlimit="10"/></g><g transform="translate(-138,-14) scale(1,1)"><g><path fill="none" stroke="none"/><text fill="#000000" stroke="none" font-family="Arial" font-size="13px" font-style="normal" font-weight="bold" text-decoration="none" x="421.61279296875" y="592">Set preferences</text></g></g><g transform="translate(-138,-14) scale(1,1)"><path fill="#C0C0C0" stroke="none" d="M 403 720 C 403 710.6111584 435.0116368 703 474.5 703 C 513.9883632 703 546 710.6111584 546 720 C 546 729.3888416 513.9883632 737 474.5 737 C 435.0116368 737 403 729.3888416 403 720 Z" opacity="0.2"/></g><g transform="translate(-138,-14) scale(1,1)"><path fill="#ffffff" stroke="none" d="M 396 713 C 396 703.6111584 428.0116368 696 467.5 696 C 506.9883632 696 539 703.6111584 539 713 C 539 722.3888416 506.9883632 730 467.5 730 C 428.0116368 730 396 722.3888416 396 713 Z"/></g><g transform="translate(-138,-14) scale(1,1)"><path fill="none" stroke="#000000" d="M 396 713 C 396 703.6111584 428.0116368 696 467.5 696 C 506.9883632 696 539 703.6111584 539 713 C 539 722.3888416 506.9883632 730 467.5 730 C 428.0116368 730 396 722.3888416 396 713 Z" stroke-miterlimit="10"/></g><g transform="translate(-138,-14) scale(1,1)"><g><path fill="none" stroke="none"/><text fill="#000000" stroke="none" font-family="Arial" font-size="13px" font-style="normal" font-weight="bold" text-decoration="none" x="424.504150390625" y="720">Search actions</text></g></g><g transform="translate(-138,-14) scale(1,1)"><path fill="none" stroke="#000000" d="M 208 102 L 398 92" stroke-miterlimit="10"/></g><g transform="translate(-138,-14) scale(1,1)"><path fill="none" stroke="#000000" d="M 205 309 L 402 294" stroke-miterlimit="10"/></g><g transform="translate(-138,-14) scale(1,1)"><path fill="none" stroke="#000000" d="M 219 681 L 420 603" stroke-miterlimit="10"/></g><g transform="translate(-138,-14) scale(1,1)"><path fill="none" stroke="#000000" d="M 219 697 L 395 708" stroke-miterlimit="10"/></g></g></svg>